<svg width="132" height="66" viewBox="0 0 132 66" fill="none" xmlns="http://www.w3.org/2000/svg">
<path d="M43.6704 64.9979C44.0411 53.1502 53.7621 43.6595 65.6998 43.6595C77.6375 43.6595 87.3586 53.1502 87.7292 64.9979H43.6704Z" fill="#696969" stroke="#696969" stroke-width="1.40385"/>
<line x1="66.8232" y1="37.9038" x2="66.8232" stroke="#696969" stroke-width="2.80769"/>
<line x1="93.6001" y1="63.3961" x2="131.504" y2="63.3961" stroke="#696969" stroke-width="2.80769"/>
<line x1="87.4497" y1="46.0246" x2="114.252" y2="19.2225" stroke="#696969" stroke-width="2.80769"/>
<line x1="18.6816" y1="19.2225" x2="45.4837" y2="46.0246" stroke="#696969" stroke-width="2.80769"/>
<line y1="63.3961" x2="37.9038" y2="63.3961" stroke="#696969" stroke-width="2.80769"/>
<path d="M66.2929 39.7071C66.6834 40.0976 67.3166 40.0976 67.7071 39.7071L74.0711 33.3431C74.4616 32.9526 74.4616 32.3195 74.0711 31.9289C73.6805 31.5384 73.0474 31.5384 72.6569 31.9289L67 37.5858L61.3431 31.9289C60.9526 31.5384 60.3195 31.5384 59.9289 31.9289C59.5384 32.3195 59.5384 32.9526 59.9289 33.3431L66.2929 39.7071ZM66 37V39H68V37H66Z" fill="#696969"/>
</svg>
