<svg width="132" height="69" viewBox="0 0 132 69" fill="none" xmlns="http://www.w3.org/2000/svg">
<path d="M43.6704 67.798C44.0411 55.9503 53.7621 46.4596 65.6998 46.4596C77.6375 46.4596 87.3586 55.9503 87.7292 67.798H43.6704Z" fill="#696969" stroke="#696969" stroke-width="1.40385"/>
<line x1="66.8232" y1="40.7039" x2="66.8232" y2="2.80008" stroke="#696969" stroke-width="2.80769"/>
<line x1="93.6001" y1="66.1961" x2="131.504" y2="66.1961" stroke="#696969" stroke-width="2.80769"/>
<line x1="87.4497" y1="48.8246" x2="114.252" y2="22.0225" stroke="#696969" stroke-width="2.80769"/>
<line x1="18.6816" y1="22.0226" x2="45.4837" y2="48.8247" stroke="#696969" stroke-width="2.80769"/>
<line y1="66.1961" x2="37.9038" y2="66.1961" stroke="#696969" stroke-width="2.80769"/>
<path d="M67.7071 0.292893C67.3166 -0.0976311 66.6834 -0.0976311 66.2929 0.292893L59.9289 6.65685C59.5384 7.04738 59.5384 7.68054 59.9289 8.07107C60.3195 8.46159 60.9526 8.46159 61.3431 8.07107L67 2.41421L72.6569 8.07107C73.0474 8.46159 73.6805 8.46159 74.0711 8.07107C74.4616 7.68054 74.4616 7.04738 74.0711 6.65685L67.7071 0.292893ZM68 3V1H66V3H68Z" fill="#696969"/>
</svg>
